<svg xmlns="http://www.w3.org/2000/svg" xmlns:svg="http://www.w3.org/2000/svg" id="Capa_1" width="128" height="120.875" x="0" y="0" version="1.1" viewBox="0 0 128 120.875" xml:space="preserve"><metadata id="metadata39"/><rect id="rect5" width="128" height="120.875" x="-53.404" y="-53.404" style="fill:#000;fill-opacity:0;stroke:none;stroke-width:.97177076"/><path id="path2" d="M 4.08844,23.702082 C 1.834347,23.702082 0,21.75341 0,19.35754 V 4.344542 C 0,1.948672 1.834347,0 4.08844,0 h 51.734577 c 2.25409,0 4.08844,1.948672 4.08844,4.344542 V 19.35754 c 0,2.39587 -1.83435,4.344542 -4.08844,4.344542 z m 119.82346,0 c 2.25409,0 4.08844,-1.948672 4.08844,-4.344542 V 4.344542 C 128.00034,1.948672 126.16599,0 123.9119,0 H 72.177317 c -2.25409,0 -4.08844,1.948672 -4.08844,4.344542 V 19.35754 c 0,2.39587 1.83435,4.344542 4.08844,4.344542 z M 89.867177,56.09267 c 2.2541,0 4.08844,-1.94925 4.08844,-4.34454 V 36.735707 c 0,-2.395869 -1.83434,-4.344541 -4.08844,-4.344541 h -51.73457 c -2.254093,0 -4.08844,1.948672 -4.08844,4.344541 V 51.74871 c 0,2.39529 1.834347,4.34454 4.08844,4.34454 h 51.73457 z m -68.088329,0 c 2.254638,0 4.088439,-1.94867 4.088439,-4.34454 V 36.735707 c 0,-2.395869 -1.833801,-4.344541 -4.088439,-4.344541 H 4.387169 c -2.254638,0 -4.08844,1.948672 -4.08844,4.344541 V 51.74871 c 0,2.39587 1.833802,4.34454 4.08844,4.34454 h 17.391679 z m 101.834322,0 c 2.25464,0 4.08844,-1.94867 4.08844,-4.34454 V 36.735707 c 0,-2.395869 -1.8338,-4.344541 -4.08844,-4.344541 h -17.39168 c -2.25464,0 -4.08844,1.948672 -4.08844,4.344541 V 51.74871 c 0,2.39587 1.8338,4.34454 4.08844,4.34454 h 17.39168 z M 55.823017,88.48383 c 2.25409,0 4.08844,-1.94867 4.08844,-4.34454 v -15.013 c 0,-2.39529 -1.83435,-4.34454 -4.08844,-4.34454 H 4.08844 C 1.834347,64.78175 0,66.731 0,69.12629 v 15.013 c 0,2.39587 1.834347,4.34454 4.08844,4.34454 z m 68.088883,0 c 2.25409,0 4.08844,-1.94867 4.08844,-4.34454 v -15.013 c 0,-2.39529 -1.83435,-4.34454 -4.08844,-4.34454 H 72.177317 c -2.25409,0 -4.08844,1.94925 -4.08844,4.34454 v 15.013 c 0,2.39587 1.83435,4.34454 4.08844,4.34454 z M 89.867177,120.875 c 2.2541,0 4.08844,-1.94867 4.08844,-4.34454 v -15.013 c 0,-2.39587 -1.83434,-4.34454 -4.08844,-4.34454 h -51.73457 c -2.254093,0 -4.08844,1.94867 -4.08844,4.34454 v 15.013 c 0,2.39587 1.834347,4.34454 4.08844,4.34454 z m -68.088329,0 c 2.254638,0 4.088439,-1.94867 4.088439,-4.34454 v -15.013 c 0,-2.39587 -1.833801,-4.34454 -4.088439,-4.34454 H 4.387169 c -2.254638,0 -4.08844,1.94867 -4.08844,4.34454 v 15.013 c 0,2.39587 1.833802,4.34454 4.08844,4.34454 z m 101.834322,0 c 2.25464,0 4.08844,-1.94867 4.08844,-4.34454 v -15.013 c 0,-2.39587 -1.8338,-4.34454 -4.08844,-4.34454 h -17.39168 c -2.25464,0 -4.08844,1.94867 -4.08844,4.34454 v 15.013 c 0,2.39587 1.8338,4.34454 4.08844,4.34454 z" style="fill:#ccc;fill-opacity:1;stroke-width:.56193948"/></svg>