<svg xmlns="http://www.w3.org/2000/svg" xmlns:svg="http://www.w3.org/2000/svg" id="svg7" width="128" height="128" version="1.1" viewBox="0 0 96 96"><metadata id="metadata13"/><g id="surface1295461" transform="scale(0.74999998)"><rect id="rect2" width="128" height="128" x="0" y="0" style="fill:#000;fill-opacity:0;stroke:none"/><path style="fill:#fff;fill-opacity:1;fill-rule:nonzero;stroke:none" id="path4" d="m 8,20 v 88 H 120 V 20 Z m 8,8 h 96 V 83.625 L 90.875,62.375 88,59.5 69.875,77.625 46.875,54.375 44,51.5 16,79.5 Z m 80,8 c -4.421875,0 -8,3.578125 -8,8 0,4.421875 3.578125,8 8,8 4.42188,0 8,-3.578125 8,-8 0,-4.421875 -3.57812,-8 -8,-8 z M 44,62.875 80.75,100 H 16 v -9.125 z m 44,8 24,24 V 100 H 92.125 L 75.5,83.25 Z m 0,0"/></g></svg>