<svg xmlns="http://www.w3.org/2000/svg" xmlns:svg="http://www.w3.org/2000/svg" id="svg7" width="16" height="16" version="1.1" viewBox="0 0 16 16"><defs id="defs3"><style id="current-color-scheme" type="text/css">.ColorScheme-Text{color:#363636}</style></defs><path d="M 2,1 C 0.892,1 0,1.892 0,3 v 9 c 0,1.108 0.892,2 2,2 h 12 c 1.108,0 2,-0.892 2,-2 V 3 C 16,1.892 15.108,1 14,1 Z m 0,1 h 12 c 0.554,0 1,0.446 1,1 H 1 C 1,2.446 1.446,2 2,2 Z M 1,3 h 14 v 9 c 0,0.554 -0.446,1 -1,1 H 2 C 1.446,13 1,12.554 1,12 Z" style="fill:currentColor" id="path5" class="ColorScheme-Text"/><g id="g68" transform="translate(0.3993007,0.15314685)"><path id="path2" fill="#363636" d="M 9.5,4 C 9.223,4 9,4.223 9,4.5 v 2 A 0.499,0.499 0 0 0 9.5,7 h 2 C 11.777,7 12,6.777 12,6.5 v -2 C 12,4.223 11.777,4 11.5,4 Z M 10,5 h 1 v 1 h -1 z"/><path id="path8" fill="#363636" d="M 4,6 C 3.446,6 3,6.446 3,7 v 3 c 0,0.554 0.446,1 1,1 h 3 c 0.554,0 1,-0.446 1,-1 V 7 C 8,6.446 7.554,6 7,6 Z m 0,1 h 3 v 3 H 4 Z"/></g></svg>