<svg xmlns="http://www.w3.org/2000/svg" xmlns:svg="http://www.w3.org/2000/svg" id="svg7" width="16" height="16" version="1.1" viewBox="0 0 16 16"><defs id="defs3"><style id="current-color-scheme" type="text/css">.ColorScheme-Text{color:#363636}</style></defs><path d="M 2,1 C 0.892,1 0,1.892 0,3 v 9 c 0,1.108 0.892,2 2,2 h 12 c 1.108,0 2,-0.892 2,-2 V 3 C 16,1.892 15.108,1 14,1 Z m 0,1 h 12 c 0.554,0 1,0.446 1,1 H 1 C 1,2.446 1.446,2 2,2 Z M 1,3 h 14 v 9 c 0,0.554 -0.446,1 -1,1 H 2 C 1.446,13 1,12.554 1,12 Z m 3,7 c -0.554,0 -1,0.446 -1,1 0,0.554 0.446,1 1,1 h 8 c 0.554,0 1,-0.446 1,-1 0,-0.554 -0.446,-1 -1,-1 z" style="fill:currentColor" id="path5" class="ColorScheme-Text"/></svg>