<svg xmlns="http://www.w3.org/2000/svg" xmlns:svg="http://www.w3.org/2000/svg" id="svg16" width="16" height="16" enable-background="new" version="1.1"><g id="g14" fill="#363636" transform="rotate(90,7.75,8.25)"><path id="path2" d="m 2.9500144,1 c -0.277,0 -0.5,0.223 -0.5,0.5 v 6.5547 a 2.5,2.5 0 0 1 0.5,-0.054688 2.5,2.5 0 0 1 0.5,0.050781 v -6.5508 c 0,-0.277 -0.223,-0.5 -0.5,-0.5 z m 0.5,11.945 a 2.5,2.5 0 0 1 -0.5,0.05469 2.5,2.5 0 0 1 -0.5,-0.05078 v 1.5508 c 0,0.277 0.223,0.5 0.5,0.5 0.277,0 0.5,-0.223 0.5,-0.5 v -1.5547 z"/><path id="path4" d="M 7.5,1 C 7.223,1 7,1.223 7,1.5 V 3.0547 A 2.5,2.5 0 0 1 7.5,3.000012 2.5,2.5 0 0 1 8,3.050793 v -1.5508 c 0,-0.277 -0.223,-0.5 -0.5,-0.5 z M 8,7.9453 A 2.5,2.5 0 0 1 7.5,7.999988 2.5,2.5 0 0 1 7,7.949207 v 6.5508 c 0,0.277 0.223,0.5 0.5,0.5 0.277,0 0.5,-0.223 0.5,-0.5 v -6.5547 z"/><path id="path6" d="m 12.049986,1.0001482 c -0.277,0 -0.5,0.223 -0.5,0.5 v 6.5547 a 2.5,2.5 0 0 1 0.5,-0.054688 2.5,2.5 0 0 1 0.5,0.050781 v -6.5508 c 0,-0.277 -0.223,-0.5 -0.5,-0.5 z m 0.5,11.9450008 a 2.5,2.5 0 0 1 -0.5,0.05469 2.5,2.5 0 0 1 -0.5,-0.05078 v 1.5508 c 0,0.276999 0.223,0.5 0.5,0.5 0.277,0 0.5,-0.223001 0.5,-0.5 v -1.5547 z"/><circle id="circle8" cx="2.95" cy="10.5" r="1.5"/><circle id="circle10" cx="7.5" cy="5.5" r="1.5"/><circle id="circle12" cx="12.05" cy="10.5" r="1.5"/></g></svg>